<svg id="menu" xmlns="http://www.w3.org/2000/svg" width="21.845" height="15.777" viewBox="0 0 21.845 15.777">
  <path id="Path_276" data-name="Path 276" d="M20.935,124.488H.91a.91.91,0,1,1,0-1.82H20.935a.91.91,0,1,1,0,1.82Zm0,0" transform="translate(0 -115.69)" fill="#08c642"/>
  <path id="Path_277" data-name="Path 277" d="M20.935,1.82H.91A.91.91,0,0,1,.91,0H20.935a.91.91,0,1,1,0,1.82Zm0,0" fill="#08c642"/>
  <path id="Path_278" data-name="Path 278" d="M20.935,247.152H.91a.91.91,0,0,1,0-1.82H20.935a.91.91,0,1,1,0,1.82Zm0,0" transform="translate(0 -231.375)" fill="#08c642"/>
</svg>
